<svg xmlns="http://www.w3.org/2000/svg" version="1.1" xmlns:xlink="http://www.w3.org/1999/xlink" xmlns:svgjs="http://svgjs.dev/svgjs" width="1500" height="1500" viewBox="0 0 1500 1500"><rect width="1500" height="1500" fill="#ffffff"></rect><g transform="matrix(0.6666666666666666,0,0,0.6666666666666666,249.78425655976667,249.78425655976673)"><svg viewBox="0 0 343 343" data-background-color="#ffffff" preserveAspectRatio="xMidYMid meet" height="1500" width="1500" xmlns="http://www.w3.org/2000/svg" xmlns:xlink="http://www.w3.org/1999/xlink"><g id="tight-bounds" transform="matrix(1,0,0,1,0.0740000000000407,0.07400000000001228)"><svg viewBox="0 0 342.85155851775386 342.85155851775386" height="342.85155851775386" width="342.85155851775386"><g><svg></svg></g><g><svg viewBox="0 0 342.85155851775386 342.85155851775386" height="342.85155851775386" width="342.85155851775386"><g><path d="M0 171.426c0-94.676 76.75-171.426 171.426-171.426 94.676 0 171.426 76.75 171.426 171.426 0 94.676-76.75 171.426-171.426 171.426-94.676 0-171.426-76.75-171.426-171.426zM171.426 340.066c93.137 0 168.64-75.503 168.64-168.64 0-93.137-75.503-168.64-168.64-168.64-93.137 0-168.64 75.503-168.64 168.64 0 93.137 75.503 168.64 168.64 168.64z" data-fill-palette-color="tertiary" fill="#000000" stroke="transparent"></path><ellipse rx="164.56874808852186" ry="164.56874808852186" cx="171.42577925887693" cy="171.42577925887693" fill="#000000" stroke="transparent" stroke-width="0" fill-opacity="1" data-fill-palette-color="tertiary"></ellipse></g><g transform="matrix(1,0,0,1,64.84655864529837,130.98882354706788)"><svg viewBox="0 0 213.1584412271571 80.8739114236181" height="80.8739114236181" width="213.1584412271571"><g><svg viewBox="0 0 213.1584412271571 80.8739114236181" height="80.8739114236181" width="213.1584412271571"><g><svg viewBox="0 0 213.1584412271571 80.8739114236181" height="80.8739114236181" width="213.1584412271571"><g transform="matrix(1,0,0,1,0,49.98332176020951)"><svg viewBox="0 0 213.1584412271571 30.890589663408587" height="30.890589663408587" width="213.1584412271571"><g id="textblocktransform"><svg viewBox="0 0 213.1584412271571 30.890589663408587" height="30.890589663408587" width="213.1584412271571" id="textblock"><g><svg viewBox="0 0 213.1584412271571 30.890589663408587" height="30.890589663408587" width="213.1584412271571"><g transform="matrix(1,0,0,1,0,0)"><svg width="213.1584412271571" viewBox="2.15 -34 239.07999999999998 34.65" height="30.890589663408587" data-palette-color="#ffffff"><path d="M5.2 0.5L5.2 0.5Q4.6 0.5 3.98 0.3 3.35 0.1 2.93-0.65 2.5-1.4 2.5-2.95L2.5-2.95Q2.5-3.95 2.7-5.58 2.9-7.2 3.25-9.8L3.25-9.8Q3.5-11.45 3.83-14.23 4.15-17 4.15-20.05L4.15-20.05Q4.15-21.4 4.05-22.93 3.95-24.45 3.65-25.7L3.65-25.7Q3.05-25.55 2.75-25.55L2.75-25.55Q2.45-25.55 2.3-25.73 2.15-25.9 2.15-26.4L2.15-26.4Q2.15-27.4 2.38-28.43 2.6-29.45 3.1-30.15L3.1-30.15Q3.6-30.85 4.28-31.15 4.95-31.45 5.7-31.55L5.7-31.55Q6.95-31.7 8.88-31.83 10.8-31.95 12.93-32.05 15.05-32.15 16.8-32.15L16.8-32.15Q19.15-32.15 20.28-32.1 21.4-32.05 22-31.95L22-31.95Q23.3-31.75 23.3-30.55L23.3-30.55Q23.3-29.7 22.98-29.03 22.65-28.35 22.2-27.8L22.2-27.8Q21.65-27 21.03-26.68 20.4-26.35 19.4-26.45L19.4-26.45Q18.55-26.55 17.07-26.63 15.6-26.7 13.7-26.7L13.7-26.7Q12.9-26.7 11.6-26.65 10.3-26.6 8.85-26.5L8.85-26.5Q8.8-24.8 8.55-22.63 8.3-20.45 8-18.2L8-18.2Q9.35-18.3 11.25-18.38 13.15-18.45 15.15-18.5 17.15-18.55 18.7-18.55L18.7-18.55Q19.6-18.55 20-18.32 20.4-18.1 20.4-17.35L20.4-17.35Q20.4-16.5 19.98-15.53 19.55-14.55 18.88-13.85 18.2-13.15 17.45-13.2L17.45-13.2Q16.2-13.3 13.93-13.35 11.65-13.4 9.15-13.4L9.15-13.4 7.55-13.4Q7.45-12.3 7.38-11.23 7.3-10.15 7.3-9.25L7.3-9.25Q7.3-7.5 7.65-6.18 8-4.85 9-3.9L9-3.9Q9.65-3.25 9.65-2.4L9.65-2.4Q9.65-1.3 8.4-0.4 7.15 0.5 5.2 0.5ZM28.75 0.5L28.75 0.5Q27.3 0.5 26.6-0.3 25.9-1.1 25.9-3.1L25.9-3.1Q25.9-4.05 26.05-5.55 26.2-7.05 26.4-8.8L26.4-8.8Q26.7-10.95 26.92-13.3 27.15-15.65 27.15-17.8L27.15-17.8Q27.15-20.85 26.87-24.13 26.6-27.4 25.35-29.85L25.35-29.85Q24.9-30.85 24.9-31.3L24.9-31.3Q24.9-31.95 25.47-32.55 26.05-33.15 26.9-33.58 27.75-34 28.55-34L28.55-34Q29.85-34 30.5-32.83 31.15-31.65 31.35-29.63 31.55-27.6 31.55-25L31.55-25Q31.55-21.05 31.22-18.15 30.9-15.25 30.6-13.05L30.6-13.05Q30.4-11.6 30.22-10.3 30.05-9 30.05-7.95L30.05-7.95Q30.05-6.2 30.62-5.43 31.2-4.65 32.5-3.9L32.5-3.9Q32.85-3.7 33.02-3.53 33.2-3.35 33.2-3L33.2-3Q33.2-2.6 32.8-1.75 32.4-0.9 31.42-0.2 30.45 0.5 28.75 0.5ZM42.7 0.65L42.7 0.65Q40.2 0.65 38.82-0.8 37.45-2.25 37.45-5L37.45-5Q37.45-6.95 38-9L38-9Q38.25-9.85 38.4-10.7 38.55-11.55 38.55-12.4L38.55-12.4Q38.55-14.6 37.2-15.25L37.2-15.25Q35.9-15.95 35.9-16.75L35.9-16.75Q35.9-17.55 36.57-18.35 37.25-19.15 38.25-19.68 39.25-20.2 40.25-20.2L40.25-20.2Q43.09-20.2 43.09-15.55L43.09-15.55Q43.09-14.05 42.87-12.78 42.65-11.5 42.34-10.35L42.34-10.35Q42.15-9.55 42.02-8.75 41.9-7.95 41.9-7.35L41.9-7.35Q41.9-4.85 44.34-4.85L44.34-4.85Q46.65-4.85 48.65-7.3 50.65-9.75 51.95-14.15L51.95-14.15 51.9-15.1Q51.8-17.6 52.77-18.9 53.75-20.2 55.65-20.2L55.65-20.2Q57.3-20.2 57.3-19.15L57.3-19.15Q57.3-18.8 57.17-18.25 57.05-17.7 56.8-16.95L56.8-16.95Q56.3-15.1 55.95-13.03 55.59-10.95 55.59-9.2L55.59-9.2Q55.59-7.25 56.2-5.98 56.8-4.7 58.45-4.25L58.45-4.25Q58.9-4.2 59.17-3.98 59.45-3.75 59.45-3.05L59.45-3.05Q59.45-1.85 58.45-0.7 57.45 0.45 55.55 0.45L55.55 0.45Q51.9 0.45 51.9-4.7L51.9-4.7Q51.9-5.6 52.05-7.4L52.05-7.4 51.95-7.45Q48.8 0.65 42.7 0.65ZM64.19 0.5L64.19 0.5Q62.54 0.5 61.47-0.35 60.39-1.2 60.39-2.75L60.39-2.75Q60.39-4.35 61.37-5.38 62.34-6.4 63.14-6.4L63.14-6.4Q63.69-6.4 63.94-5.8L63.94-5.8Q64.24-5.25 64.69-5.05 65.14-4.85 65.59-4.85L65.59-4.85Q66.89-4.85 67.89-6.1 68.89-7.35 69.74-9.5L69.74-9.5Q68.94-11.7 67.49-13.28 66.04-14.85 63.94-14.85L63.94-14.85Q63.64-14.85 63.44-14.83 63.24-14.8 63.09-14.8L63.09-14.8Q62.74-14.8 62.34-15.28 61.94-15.75 61.94-16.85L61.94-16.85Q61.94-18.6 63.09-19.45 64.24-20.3 65.64-20.3L65.64-20.3Q67.74-20.3 69.49-18.48 71.24-16.65 72.34-13.85L72.34-13.85Q73.29-15.6 74.62-17.07 75.94-18.55 77.47-19.43 78.99-20.3 80.44-20.3L80.44-20.3Q81.79-20.3 82.34-19.63 82.89-18.95 82.89-18.1L82.89-18.1Q82.89-17.3 82.54-16.45 82.19-15.6 81.69-15 81.19-14.4 80.64-14.4L80.64-14.4Q80.34-14.4 79.94-14.55L79.94-14.55Q79.59-14.65 79.09-14.78 78.59-14.9 78.04-14.9L78.04-14.9Q76.79-14.9 75.87-13.95 74.94-13 73.64-10.5L73.64-10.5Q74.19-9.15 75.09-7.88 75.99-6.6 77.27-5.75 78.54-4.9 80.19-4.9L80.19-4.9Q80.49-4.9 80.74-4.93 80.99-4.95 81.19-4.95L81.19-4.95Q81.49-4.95 81.67-4.73 81.84-4.5 81.84-3.75L81.84-3.75Q81.84-2.85 81.49-1.88 81.14-0.9 80.24-0.2 79.34 0.5 77.64 0.5L77.64 0.5Q75.79 0.5 74.54-0.45 73.29-1.4 72.52-2.95 71.74-4.5 71.19-6.2L71.19-6.2Q69.84-3.3 68.32-1.4 66.79 0.5 64.19 0.5ZM97.39 0.65L97.39 0.65Q93.84 0.65 91.17-0.95 88.49-2.55 87.04-5.5 85.59-8.45 85.59-12.5L85.59-12.5Q85.59-16.35 86.84-19.9 88.09-23.45 90.44-26.25 92.79-29.05 96.09-30.7 99.39-32.35 103.54-32.35L103.54-32.35Q106.64-32.35 108.64-31.4 110.64-30.45 110.64-28.6L110.64-28.6Q110.64-27.7 110.17-26.83 109.69-25.95 108.94-25.35 108.19-24.75 107.39-24.75L107.39-24.75Q106.89-24.75 106.59-25L106.59-25Q105.24-25.9 103.94-26.33 102.64-26.75 100.94-26.75L100.94-26.75Q97.39-26.75 94.94-25.13 92.49-23.5 91.22-20.85 89.94-18.2 89.94-15.1L89.94-15.1Q89.94-12.1 91.09-9.8 92.24-7.5 94.29-6.2 96.34-4.9 99.09-4.9L99.09-4.9Q101.29-4.9 103.37-5.78 105.44-6.65 107.04-8.2L107.04-8.2Q107.74-8.85 108.44-8.85L108.44-8.85Q109.04-8.85 109.29-8.35 109.54-7.85 109.54-7.35L109.54-7.35Q109.54-6.5 109.04-5.43 108.54-4.35 107.49-3.3L107.49-3.3Q105.64-1.45 102.94-0.4 100.24 0.65 97.39 0.65ZM120.54 0.65L120.54 0.65Q117.09 0.65 115.01-1.23 112.94-3.1 112.94-6.75L112.94-6.75Q112.94-8.45 113.41-10.05 113.89-11.65 114.69-13.05L114.69-13.05Q113.89-12.55 113.49-12.55L113.49-12.55Q112.89-12.55 112.66-13.23 112.44-13.9 112.44-14.55L112.44-14.55Q112.44-15.7 112.91-16.38 113.39-17.05 113.84-17.4L113.84-17.4Q114.89-18.3 117.14-19.38 119.39-20.45 122.54-20.45L122.54-20.45Q126.84-20.45 129.21-18.05 131.59-15.65 131.59-11.35L131.59-11.35Q131.59-8 130.19-5.28 128.79-2.55 126.31-0.95 123.84 0.65 120.54 0.65ZM122.09-4.45L122.09-4.45Q124.59-4.45 126.31-6.03 128.04-7.6 128.04-10.2L128.04-10.2Q128.04-12.9 126.29-14.05 124.54-15.2 122.24-15.2L122.24-15.2Q121.19-15.2 120.34-15 119.49-14.8 118.74-14.5L118.74-14.5Q118.04-13.5 117.49-12.25 116.94-11 116.94-9.5L116.94-9.5Q116.94-7 118.44-5.73 119.94-4.45 122.09-4.45ZM138.23 0.55L138.23 0.55Q136.44 0.55 136.63-0.65L136.63-0.65Q137.19-2.8 137.56-5.03 137.94-7.25 137.94-9.3L137.94-9.3Q137.94-11.95 137.61-13.18 137.28-14.4 136.73-14.88 136.19-15.35 135.38-15.6L135.38-15.6Q135.03-15.75 134.76-16 134.48-16.25 134.48-16.7L134.48-16.7Q134.48-17.4 135.03-18.25 135.59-19.1 136.61-19.73 137.63-20.35 138.94-20.35L138.94-20.35Q140.63-20.35 141.28-19.18 141.94-18 141.94-16.1L141.94-16.1Q141.94-14.85 141.69-13.3 141.44-11.75 141.19-10.5L141.19-10.5 141.34-10.45Q142.34-13.1 143.76-15.38 145.19-17.65 147.09-19.05 148.98-20.45 151.48-20.45L151.48-20.45Q154.13-20.45 155.53-18.85 156.94-17.25 156.94-14.85L156.94-14.85Q156.94-13.85 156.71-12.95 156.49-12.05 156.24-11.2L156.24-11.2Q155.99-10.4 155.81-9.55 155.63-8.7 155.63-7.85L155.63-7.85Q155.63-5 158.34-4L158.34-4Q159.03-3.7 159.03-3.1L159.03-3.1Q159.03-2.65 158.74-1.8 158.44-0.95 157.63-0.23 156.84 0.5 155.28 0.5L155.28 0.5Q153.28 0.5 152.19-0.93 151.09-2.35 151.09-4.55L151.09-4.55Q151.09-5.8 151.36-7.08 151.63-8.35 151.94-9.45L151.94-9.45Q152.13-10.3 152.31-11.13 152.48-11.95 152.48-12.6L152.48-12.6Q152.48-14.9 150.09-14.9L150.09-14.9Q148.03-14.9 146.48-13.38 144.94-11.85 143.84-9.55 142.73-7.25 142.03-4.9L142.03-4.9 142.03-3.7Q142.03-1.85 141.01-0.65 139.98 0.55 138.23 0.55ZM169.53 0.65L169.53 0.65Q166.48 0.65 165.16-1.38 163.83-3.4 163.83-6.6L163.83-6.6Q163.83-7.75 163.96-8.85 164.08-9.95 164.23-11.05L164.23-11.05Q164.38-12.15 164.53-13.2 164.68-14.25 164.78-15.2L164.78-15.2Q163.73-14.9 162.68-14.9L162.68-14.9Q161.58-14.9 161.58-15.8L161.58-15.8Q161.58-16.75 162.43-18.13 163.28-19.5 164.56-20.85 165.83-22.2 167.11-23.13 168.38-24.05 169.28-24.05L169.28-24.05Q170.38-24.05 170.38-22.15L170.38-22.15Q170.38-21.65 170.31-21.13 170.23-20.6 170.13-20.05L170.13-20.05Q171.08-20.25 172.06-20.4 173.03-20.55 173.93-20.55L173.93-20.55Q175.08-20.55 175.71-20.15 176.33-19.75 176.33-18.6L176.33-18.6Q176.33-17.4 175.76-16.2 175.18-15 174.48-15L174.48-15Q174.33-15 173.98-15.05 173.63-15.1 173.13-15.2L173.13-15.2Q172.48-15.35 171.48-15.5 170.48-15.65 169.08-15.65L169.08-15.65Q168.73-14.1 168.46-12.48 168.18-10.85 168.18-9.55L168.18-9.55Q168.18-6.65 169.63-5.6 171.08-4.55 173.83-4.55L173.83-4.55Q174.68-4.55 175.03-4.28 175.38-4 175.38-3.3L175.38-3.3Q175.38-1.65 173.68-0.5 171.98 0.65 169.53 0.65ZM186.43 0.65L186.43 0.65Q182.63 0.65 180.5-1.53 178.38-3.7 178.38-7.6L178.38-7.6Q178.38-11.15 179.93-14.05 181.48-16.95 184.11-18.68 186.73-20.4 189.88-20.4L189.88-20.4Q192.88-20.4 194.68-18.93 196.48-17.45 196.48-15L196.48-15Q196.48-13.05 195.28-11.4 194.08-9.75 192.08-8.78 190.08-7.8 187.63-7.8L187.63-7.8Q184.63-7.8 182.73-9.15L182.73-9.15Q182.78-6.85 184.31-5.45 185.83-4.05 188.23-4.05L188.23-4.05Q189.68-4.05 191.21-4.58 192.73-5.1 193.83-6L193.83-6Q194.53-6.6 195.13-6.6L195.13-6.6Q195.63-6.6 195.96-6.28 196.28-5.95 196.28-5.45L196.28-5.45Q196.28-4.35 194.38-2.55L194.38-2.55Q191.03 0.65 186.43 0.65ZM187.18-11.1L187.18-11.1Q188.98-11.1 190.18-11.85 191.38-12.6 191.38-13.75L191.38-13.75Q191.38-14.7 190.58-15.23 189.78-15.75 188.38-15.75L188.38-15.75Q186.53-15.75 185.16-14.78 183.78-13.8 183.18-12.05L183.18-12.05Q183.88-11.6 184.98-11.35 186.08-11.1 187.18-11.1ZM203.13 0.55L203.13 0.55Q201.33 0.55 201.53-0.65L201.53-0.65Q202.08-2.8 202.45-5.03 202.83-7.25 202.83-9.3L202.83-9.3Q202.83-11.95 202.5-13.18 202.18-14.4 201.63-14.88 201.08-15.35 200.28-15.6L200.28-15.6Q199.93-15.75 199.65-16 199.38-16.25 199.38-16.7L199.38-16.7Q199.38-17.4 199.93-18.25 200.48-19.1 201.5-19.73 202.53-20.35 203.83-20.35L203.83-20.35Q205.53-20.35 206.18-19.18 206.83-18 206.83-16.1L206.83-16.1Q206.83-14.85 206.58-13.3 206.33-11.75 206.08-10.5L206.08-10.5 206.23-10.45Q207.23-13.1 208.65-15.38 210.08-17.65 211.98-19.05 213.88-20.45 216.38-20.45L216.38-20.45Q219.03-20.45 220.43-18.85 221.83-17.25 221.83-14.85L221.83-14.85Q221.83-13.85 221.6-12.95 221.38-12.05 221.13-11.2L221.13-11.2Q220.88-10.4 220.7-9.55 220.53-8.7 220.53-7.85L220.53-7.85Q220.53-5 223.23-4L223.23-4Q223.93-3.7 223.93-3.1L223.93-3.1Q223.93-2.65 223.63-1.8 223.33-0.95 222.53-0.23 221.73 0.5 220.18 0.5L220.18 0.5Q218.18 0.5 217.08-0.93 215.98-2.35 215.98-4.55L215.98-4.55Q215.98-5.8 216.25-7.08 216.53-8.35 216.83-9.45L216.83-9.45Q217.03-10.3 217.2-11.13 217.38-11.95 217.38-12.6L217.38-12.6Q217.38-14.9 214.98-14.9L214.98-14.9Q212.93-14.9 211.38-13.38 209.83-11.85 208.73-9.55 207.63-7.25 206.93-4.9L206.93-4.9 206.93-3.7Q206.93-1.85 205.9-0.65 204.88 0.55 203.13 0.55ZM234.43 0.65L234.43 0.65Q231.38 0.65 230.05-1.38 228.73-3.4 228.73-6.6L228.73-6.6Q228.73-7.75 228.85-8.85 228.98-9.95 229.13-11.05L229.13-11.05Q229.28-12.15 229.43-13.2 229.58-14.25 229.68-15.2L229.68-15.2Q228.63-14.9 227.58-14.9L227.58-14.9Q226.48-14.9 226.48-15.8L226.48-15.8Q226.48-16.75 227.33-18.13 228.18-19.5 229.45-20.85 230.73-22.2 232-23.13 233.28-24.05 234.18-24.05L234.18-24.05Q235.28-24.05 235.28-22.15L235.28-22.15Q235.28-21.65 235.2-21.13 235.13-20.6 235.03-20.05L235.03-20.05Q235.98-20.25 236.95-20.4 237.93-20.55 238.83-20.55L238.83-20.55Q239.98-20.55 240.6-20.15 241.23-19.75 241.23-18.6L241.23-18.6Q241.23-17.4 240.65-16.2 240.08-15 239.38-15L239.38-15Q239.23-15 238.88-15.05 238.53-15.1 238.03-15.2L238.03-15.2Q237.38-15.35 236.38-15.5 235.38-15.65 233.98-15.65L233.98-15.65Q233.63-14.1 233.35-12.48 233.08-10.85 233.08-9.55L233.08-9.55Q233.08-6.65 234.53-5.6 235.98-4.55 238.73-4.55L238.73-4.55Q239.58-4.55 239.93-4.28 240.28-4 240.28-3.3L240.28-3.3Q240.28-1.65 238.58-0.5 236.88 0.65 234.43 0.65Z" opacity="1" transform="matrix(1,0,0,1,0,0)" fill="#ffffff" class="wordmark-text-0" data-fill-palette-color="quaternary" id="text-0"></path></svg></g></svg></g></svg></g></svg></g><g transform="matrix(1,0,0,1,85.23382315616323,0)"><svg viewBox="0 0 42.69079491483067 42.69079491483067" height="42.69079491483067" width="42.69079491483067"><g><svg xmlns="http://www.w3.org/2000/svg" xmlns:xlink="http://www.w3.org/1999/xlink" version="1.1" x="0" y="0" viewBox="38.5 37.5 425 425" enable-background="new 0 0 500 500" xml:space="preserve" height="42.69079491483067" width="42.69079491483067" class="icon-icon-0" data-fill-palette-color="quaternary" id="icon-0"><g fill="#ffffff" data-fill-palette-color="quaternary"><path fill="#ffffff" d="M463.5 462.5H38.5V37.5H463.5zM63.5 437.5H438.5V62.5H63.5z" data-fill-palette-color="quaternary"></path></g><g fill="#ffffff" data-fill-palette-color="quaternary"><rect x="101" y="100" fill="#ffffff" width="37" height="40.158" data-fill-palette-color="quaternary"></rect></g><g fill="#ffffff" data-fill-palette-color="quaternary"><rect x="164" y="100" fill="#ffffff" width="144.05" height="40.158" data-fill-palette-color="quaternary"></rect></g><g fill="#ffffff" data-fill-palette-color="quaternary"><rect x="101" y="187.5" fill="#ffffff" width="100" height="25" data-fill-palette-color="quaternary"></rect></g><g fill="#ffffff" data-fill-palette-color="quaternary"><rect x="238.5" y="187.5" fill="#ffffff" width="153.5" height="25" data-fill-palette-color="quaternary"></rect></g><g fill="#ffffff" data-fill-palette-color="quaternary"><rect x="101" y="231.25" fill="#ffffff" width="37" height="25" data-fill-palette-color="quaternary"></rect></g><g fill="#ffffff" data-fill-palette-color="quaternary"><rect x="164" y="231.25" fill="#ffffff" width="87" height="25" data-fill-palette-color="quaternary"></rect></g><g fill="#ffffff" data-fill-palette-color="quaternary"><rect x="282.587" y="231.25" fill="#ffffff" width="123.413" height="25" data-fill-palette-color="quaternary"></rect></g><g fill="#ffffff" data-fill-palette-color="quaternary"><rect x="101" y="275" fill="#ffffff" width="112.543" height="25" data-fill-palette-color="quaternary"></rect></g><g fill="#ffffff" data-fill-palette-color="quaternary"><rect x="238.5" y="275" fill="#ffffff" width="122.438" height="25" data-fill-palette-color="quaternary"></rect></g><g fill="#ffffff" data-fill-palette-color="quaternary"><rect x="101" y="318.75" fill="#ffffff" width="63" height="25" data-fill-palette-color="quaternary"></rect></g><g fill="#ffffff" data-fill-palette-color="quaternary"><rect x="190.372" y="318.75" fill="#ffffff" width="135.715" height="25" data-fill-palette-color="quaternary"></rect></g><g fill="#ffffff" data-fill-palette-color="quaternary"><rect x="101" y="362.5" fill="#ffffff" width="143.583" height="25" data-fill-palette-color="quaternary"></rect></g><g fill="#ffffff" data-fill-palette-color="quaternary"><rect x="265.738" y="362.5" fill="#ffffff" width="42.312" height="25" data-fill-palette-color="quaternary"></rect></g></svg></g></svg></g><g></g></svg></g></svg></g></svg></g></svg></g><defs></defs></svg><rect width="342.85155851775386" height="342.85155851775386" fill="none" stroke="none" visibility="hidden"></rect></g></svg></g></svg>